HIERARCHY
ROOT SimulationBone
{
	OFFSET 0.000000 0.000000 0.000000
	CHANNELS 6 Xposition Yposition Zposition Zrotation Yrotation Xrotation 
	JOINT Hips
	{
		OFFSET 0.000000 0.000000 0.000000
		CHANNELS 6 Xposition Yposition Zposition Zrotation Yrotation Xrotation 
		JOINT RightUpLeg
		{
			OFFSET 0.103457 1.857818 10.548502
			CHANNELS 3 Zrotation Yrotation Xrotation
			JOINT RightLeg
			{
				OFFSET 43.500000 -0.000011 -0.000004
				CHANNELS 3 Zrotation Yrotation Xrotation
				JOINT RightFoot
				{
					OFFSET 42.372192 -0.000004 -0.000008
					CHANNELS 3 Zrotation Yrotation Xrotation
					JOINT RightToe
					{
						OFFSET 17.300014 0.000006 0.000001
						CHANNELS 3 Zrotation Yrotation Xrotation
						End Site
						{
							OFFSET 0.000000 0.000000 0.000000
						}
					}
				}
			}
		}
		JOINT LeftUpLeg
		{
			OFFSET 0.103457 1.857817 -10.548505
			CHANNELS 3 Zrotation Yrotation Xrotation
			JOINT LeftLeg
			{
				OFFSET 43.500046 -0.000004 0.000011
				CHANNELS 3 Zrotation Yrotation Xrotation
				JOINT LeftFoot
				{
					OFFSET 42.372257 0.000000 0.000015
					CHANNELS 3 Zrotation Yrotation Xrotation
					JOINT LeftToe
					{
						OFFSET 17.300003 -0.000000 0.000002
						CHANNELS 3 Zrotation Yrotation Xrotation
						End Site
						{
							OFFSET 0.000000 0.000000 0.000000
						}
					}
				}
			}
		}
		JOINT Spine
		{
			OFFSET 6.901961 -2.603721 -0.000001
			CHANNELS 3 Zrotation Yrotation Xrotation
			JOINT Spine1
			{
				OFFSET 12.588108 0.000002 -0.000001
				CHANNELS 3 Zrotation Yrotation Xrotation
				JOINT Spine2
				{
					OFFSET 12.343199 -0.000020 0.000006
					CHANNELS 3 Zrotation Yrotation Xrotation
					JOINT Neck
					{
						OFFSET 25.832905 0.000017 0.000000
						CHANNELS 3 Zrotation Yrotation Xrotation
						JOINT Head
						{
							OFFSET 11.766604 -0.000006 0.000004
							CHANNELS 3 Zrotation Yrotation Xrotation
							End Site
							{
								OFFSET 0.000000 0.000000 0.000000
							}
						}
					}
					JOINT RightShoulder
					{
						OFFSET 19.745903 -1.480350 6.000100
						CHANNELS 3 Zrotation Yrotation Xrotation
						JOINT RightArm
						{
							OFFSET 11.284130 -0.000016 -0.000016
							CHANNELS 3 Zrotation Yrotation Xrotation
							JOINT RightForeArm
							{
								OFFSET 33.000046 0.000004 0.000031
								CHANNELS 3 Zrotation Yrotation Xrotation
								JOINT RightHand
								{
									OFFSET 25.199999 0.000027 0.000001
									CHANNELS 3 Zrotation Yrotation Xrotation
									End Site
									{
										OFFSET 0.000000 0.000000 0.000000
									}
								}
							}
						}
					}
					JOINT LeftShoulder
					{
						OFFSET 19.746094 -1.480375 -6.000080
						CHANNELS 3 Zrotation Yrotation Xrotation
						JOINT LeftArm
						{
							OFFSET 11.284131 -0.000016 -0.000017
							CHANNELS 3 Zrotation Yrotation Xrotation
							JOINT LeftForeArm
							{
								OFFSET 33.000095 0.000009 0.000020
								CHANNELS 3 Zrotation Yrotation Xrotation
								JOINT LeftHand
								{
									OFFSET 25.199789 0.000132 0.000423
									CHANNELS 3 Zrotation Yrotation Xrotation
									End Site
									{
										OFFSET 0.000000 0.000000 0.000000
									}
								}
							}
						}
					}
				}
			}
		}
	}
}
MOTION
Frames: 15
Frame Time: 0.016667
-297.578552 0.000000 195.596983 0.000000 37.136576 0.000000 -0.175452 88.325394 -0.735583 94.865712 -0.195669 178.611018 175.658382 -11.848498 -170.764756 -25.072426 -3.983095 1.430909 83.867598 -2.666117 -8.321068 21.454557 0.003106 0.000018 164.959669 7.465700 141.425377 -31.654268 2.794793 -8.923265 75.899397 7.818496 5.161768 21.454551 -0.003085 -0.000001 8.934731 0.553840 -1.029545 7.846655 1.176137 -2.019318 7.528697 1.163786 -2.026385 14.305645 6.215451 -3.473531 -11.510636 -4.673622 -1.889978 -165.610804 -74.078336 -16.168083 -10.144804 59.999802 24.493903 -25.634218 -11.500948 0.953625 9.740934 5.470698 24.632720 -172.785712 76.686606 8.868888 -48.573931 -50.675539 4.584635 -35.998566 14.713477 -1.339746 8.323541 5.578335 -44.185528 
-298.648392 0.000000 194.749027 0.000000 34.335424 0.000000 -0.496561 88.595207 -0.845845 94.192805 -0.492492 178.758893 175.715422 -11.334588 -173.087956 -24.437817 -4.656247 1.121763 83.455820 -2.239794 -7.285353 21.454558 0.003106 0.000018 163.378446 8.019248 143.355632 -32.118527 2.831736 -7.244788 74.100055 6.355412 4.004113 21.454552 -0.003086 -0.000001 8.908835 0.465592 -1.070027 7.795867 1.002119 -2.106369 7.477947 0.989246 -2.112383 14.170204 6.114683 -3.657108 -11.814056 -4.285675 -2.189034 -165.991783 -74.614162 -15.774765 -10.224153 59.060313 23.403960 -25.961514 -11.676746 0.970065 10.140917 5.454967 26.044059 -172.383847 76.555752 9.278463 -46.570954 -51.019400 4.221386 -37.725123 15.036220 -1.401795 7.960714 5.727294 -42.149821 
-299.693991 0.000000 193.931711 0.000000 31.557514 0.000000 -0.796842 88.830582 -0.923876 93.589695 -0.711373 178.989384 175.807280 -10.869512 -175.753335 -23.801529 -5.085001 1.050636 83.089988 -1.988527 -6.301230 21.454560 0.003106 0.000017 161.805091 8.501904 146.542363 -33.181150 2.804574 -4.925668 73.059616 4.362047 2.854037 21.454553 -0.003089 -0.000000 8.895789 0.395699 -1.108946 7.770638 0.864867 -2.188893 7.452748 0.851496 -2.194076 13.971277 5.937302 -3.813847 -12.024592 -3.960739 -2.445392 -166.435904 -75.165360 -15.317400 -9.901494 57.901110 22.923410 -26.645957 -11.877821 0.994500 10.384697 5.720759 27.073460 -172.173987 76.626549 9.493106 -44.416118 -51.448262 3.782962 -39.479517 15.239559 -1.459846 7.693805 5.821437 -39.403326 
-300.713663 0.000000 193.144706 0.000000 28.804172 0.000000 -1.060076 89.017463 -0.969739 93.100383 -0.910828 179.307792 175.950728 -10.305865 -178.424240 -23.222386 -5.243875 1.022959 82.794763 -1.798473 -5.476174 21.454559 0.003106 0.000017 160.302002 8.911666 150.713013 -34.816482 2.453286 -2.270822 73.289188 2.282294 2.311738 21.454552 -0.003093 0.000003 8.900412 0.334016 -1.152293 7.780725 0.744652 -2.279568 7.462868 0.730738 -2.284024 13.715174 5.685557 -3.948132 -12.080432 -3.718121 -2.659038 -166.904404 -75.667513 -14.836091 -9.331946 56.489805 22.997301 -27.506519 -12.058161 1.020736 10.386866 6.118705 27.433258 -171.917492 76.869211 9.756089 -42.251321 -51.886940 3.259611 -41.108750 15.276759 -1.505750 7.519539 5.868471 -36.110572 
-301.706506 0.000000 192.387250 0.000000 26.076343 0.000000 -1.282873 89.166031 -0.998491 92.737104 -1.113612 179.652945 176.186697 -9.607896 179.166722 -22.626076 -5.236141 0.856721 82.540520 -1.547386 -4.828263 21.454557 0.003107 0.000018 158.977352 9.239507 155.389741 -36.806328 1.715742 0.479001 74.257700 0.320937 2.369523 21.454551 -0.003094 0.000004 8.920902 0.270381 -1.190030 7.822715 0.620496 -2.359089 7.504891 0.606107 -2.362794 13.462636 5.384821 -4.056540 -12.000632 -3.552330 -2.829237 -167.265499 -76.079252 -14.465597 -8.694595 54.855593 23.449910 -28.344919 -12.187669 1.044037 10.126975 6.425771 27.009251 -171.452705 77.197368 10.231698 -40.190048 -52.258982 2.632118 -42.446575 15.167485 -1.534679 7.393418 5.872376 -32.515815 
-302.672433 0.000000 191.657404 0.000000 23.374653 0.000000 -1.466296 89.286885 -1.023399 92.498444 -1.337218 179.946310 176.555531 -8.775230 177.213652 -21.926230 -5.189326 0.405082 82.292191 -1.130991 -4.344808 21.454552 0.003109 0.000019 157.921234 9.463043 160.072766 -38.911774 0.621799 3.107466 75.301670 -1.432538 2.809996 21.454550 -0.003091 0.000002 8.952087 0.194554 -1.209115 7.886473 0.470969 -2.402168 7.568673 0.456325 -2.404971 13.283073 5.063734 -4.132225 -11.828652 -3.451724 -2.953199 -167.343902 -76.372596 -14.384667 -8.129079 53.059522 24.093404 -28.985912 -12.248396 1.059803 9.627286 6.420741 25.786838 -170.674561 77.520913 11.026297 -38.330778 -52.503254 1.892189 -43.343990 14.956728 -1.546152 7.268514 5.840490 -28.888857 
-303.611407 0.000000 190.952271 0.000000 20.699634 0.000000 -1.608434 89.368057 -1.041968 92.359270 -1.610143 -179.895322 177.051071 -7.841904 175.682479 -21.119133 -5.208770 -0.343165 82.040809 -0.530021 -3.975851 21.454551 0.003111 0.000019 157.144198 9.632900 164.365907 -40.991659 -0.528407 5.409245 76.216017 -3.016027 2.982483 21.454550 -0.003088 -0.000002 8.982004 0.096044 -1.200504 7.948307 0.274234 -2.391562 7.630515 0.259658 -2.393179 13.226988 4.739933 -4.159840 -11.624230 -3.403359 -3.018386 -166.935683 -76.547059 -14.801017 -7.656703 51.222900 24.745289 -29.364744 -12.254362 1.067108 9.007741 5.994480 23.969470 -169.662991 77.794716 12.057917 -36.711924 -52.620377 1.052873 -43.731480 14.724638 -1.541720 7.130305 5.784170 -25.527033 
-304.523657 0.000000 190.269055 0.000000 18.051796 0.000000 -1.706470 89.401687 -1.050235 92.285167 -1.935057 -179.936542 177.655267 -6.862621 174.486431 -20.206657 -5.366801 -1.362844 81.778510 0.248129 -3.671406 21.454554 0.003110 0.000018 156.640002 9.787049 167.957783 -42.926704 -1.436121 7.166465 76.946415 -4.402832 2.423207 21.454550 -0.003089 -0.000004 8.998231 -0.028199 -1.158685 7.983362 0.023532 -2.316522 7.665555 0.009412 -2.316628 13.322270 4.425260 -4.124052 -11.439894 -3.396508 -3.010579 -165.876040 -76.606255 -15.882639 -7.245137 49.482006 25.241569 -29.468210 -12.232664 1.067566 8.418245 5.106598 21.828861 -168.569244 77.997852 13.172414 -35.347276 -52.632713 0.139050 -43.581577 14.548992 -1.525526 6.982980 5.716966 -22.710441 
-305.408445 0.000000 189.605692 0.000000 15.431771 0.000000 -1.764782 89.418907 -1.052214 92.236626 -2.208735 179.837290 178.346621 -5.932997 173.555995 -19.140188 -5.625488 -2.610308 81.476404 1.173439 -3.419291 21.454558 0.003109 0.000017 156.370446 9.847702 170.795943 -44.700541 -2.025237 8.190238 77.456400 -5.260684 1.874281 21.454551 -0.003091 -0.000004 8.993490 -0.151180 -1.088350 7.976308 -0.227042 -2.184488 7.658467 -0.240362 -2.183084 13.525905 4.119727 -4.016588 -11.282767 -3.429693 -2.918364 -164.161588 -76.550570 -17.633399 -6.822095 47.969398 25.440201 -29.378111 -12.231145 1.065858 7.988670 3.858852 19.680729 -167.567803 78.157857 14.192292 -34.219964 -52.585284 -0.787432 -42.953894 14.463839 -1.502627 6.868126 5.659852 -20.618560 
-306.263081 0.000000 188.960156 0.000000 12.840290 0.000000 -1.791791 89.446621 -1.050675 92.186663 -2.340020 179.473521 179.077184 -5.125842 172.832448 -17.924827 -5.915086 -4.031531 81.128743 2.205784 -3.222199 21.454557 0.003109 0.000017 156.301612 9.756705 172.922237 -46.311141 -2.285282 8.399545 77.722285 -5.349964 2.072227 21.454549 -0.003091 -0.000001 8.963460 -0.246710 -1.000017 7.917862 -0.424469 -2.014529 7.599981 -0.436760 -2.011936 13.777388 3.823998 -3.834895 -11.145897 -3.502686 -2.735975 -161.904464 -76.378887 -19.939853 -6.302279 46.788766 25.236169 -29.197917 -12.295077 1.066673 7.804445 2.399163 17.800616 -166.795010 78.307005 14.978880 -33.299255 -52.521473 -1.658294 -41.932376 14.479388 -1.475573 6.832986 5.636200 -19.367437 
-307.085128 0.000000 188.329896 0.000000 10.277802 0.000000 -1.795359 89.455833 -1.037060 92.131235 -2.400740 179.072772 179.692073 -4.381897 172.291016 -16.827657 -6.161363 -5.550257 80.844980 3.286168 -3.100081 21.454555 0.003109 0.000018 156.472339 9.612702 174.511292 -47.693642 -2.236708 8.109662 77.900492 -5.035784 2.498776 21.454550 -0.003091 0.000002 8.910245 -0.322007 -0.917399 7.812457 -0.581393 -1.854407 7.494535 -0.592715 -1.850869 14.017190 3.554024 -3.594020 -11.011027 -3.611235 -2.477614 -159.433006 -76.101683 -22.467895 -5.600596 45.929005 24.646702 -29.022955 -12.438756 1.072635 7.853728 0.884189 16.292496 -166.234290 78.441705 15.549286 -32.545509 -52.452467 -2.399726 -40.613632 14.554322 -1.444805 6.904950 5.682188 -18.913458 
-307.873877 0.000000 187.713094 0.000000 7.744395 0.000000 -1.780695 89.419235 -1.004272 92.066191 -2.478101 178.743248 -179.956941 -3.636745 171.903272 -16.120643 -6.318412 -7.079787 80.732316 4.352690 -3.061523 21.454554 0.003107 0.000018 156.935969 9.534998 175.778138 -48.779245 -1.910494 7.667572 78.133062 -4.722881 2.536074 21.454554 -0.003092 0.000001 8.838190 -0.388522 -0.863062 7.669195 -0.719041 -1.749942 7.351231 -0.729730 -1.745575 14.199295 3.331635 -3.314002 -10.861232 -3.750917 -2.163775 -157.095682 -75.747152 -24.862161 -4.667790 45.349038 23.729481 -28.925287 -12.658253 1.084979 8.083023 -0.539639 15.168036 -165.811385 78.542025 15.979378 -31.917392 -52.379768 -2.941662 -39.092035 14.636844 -1.410832 7.098107 5.834324 -19.146803 
-308.627941 0.000000 187.110242 0.000000 5.239836 0.000000 -1.757879 89.372162 -0.965121 91.992145 -2.557111 178.569277 -179.876706 -2.929200 171.596536 -15.820064 -6.401105 -8.530643 80.777095 5.353055 -3.068949 21.454555 0.003107 0.000018 157.703385 9.566300 176.964601 -49.522289 -1.423583 7.142337 78.324517 -4.391131 2.436855 21.454558 -0.003092 -0.000000 8.754161 -0.441069 -0.841784 7.501872 -0.826693 -1.710358 7.183877 -0.837142 -1.705341 14.329706 3.185181 -3.019123 -10.696186 -3.920404 -1.820054 -155.170093 -75.371017 -26.838110 -3.566795 44.994898 22.606300 -28.891733 -12.907733 1.100454 8.398550 -1.757946 14.235845 -165.375299 78.561820 16.423196 -31.374746 -52.298535 -3.235776 -37.439678 14.684430 -1.372397 7.397206 6.107381 -19.852901 
-309.343635 0.000000 186.523312 0.000000 2.763760 0.000000 -1.739916 89.357030 -0.933700 91.913317 -2.602436 178.609265 179.972290 -2.312941 171.285182 -15.861504 -6.431771 -9.825021 80.933255 6.243745 -3.080938 21.454556 0.003110 0.000018 158.780945 9.714296 178.291861 -49.879477 -0.900793 6.588425 78.386781 -3.985951 2.543620 21.454557 -0.003091 0.000000 8.664851 -0.472049 -0.851005 7.323832 -0.889356 -1.730145 7.005827 -0.899924 -1.724750 14.428959 3.136665 -2.731694 -10.519938 -4.119178 -1.470298 -153.820365 -75.034708 -28.225947 -2.394438 44.811708 21.418044 -28.881594 -13.135747 1.114902 8.713670 -2.669507 13.269170 -164.784140 78.459221 17.025592 -30.871502 -52.208424 -3.254461 -35.726086 14.668504 -1.330269 7.780423 6.505147 -20.788787 
-310.018069 0.000000 185.953347 0.000000 0.316220 0.000000 -1.728827 89.381927 -0.910000 91.832740 -2.598499 178.839435 179.676527 -1.803894 170.873957 -16.117655 -6.413295 -10.928090 81.140952 7.005500 -3.080602 21.454558 0.003113 0.000018 160.199273 9.931503 179.865560 -49.797474 -0.409175 6.260649 78.478155 -3.728693 2.691575 21.454555 -0.003090 0.000001 8.573780 -0.480766 -0.876482 7.142024 -0.906601 -1.780927 6.824027 -0.917475 -1.775427 14.522451 3.176362 -2.461369 -10.337730 -4.347293 -1.126257 -152.988599 -74.776538 -29.083087 -1.268986 44.764205 20.318511 -28.829507 -13.310324 1.125214 8.982324 -3.190973 12.085686 -163.997894 78.238001 17.827782 -30.336267 -52.134481 -3.032073 -34.031167 14.607254 -1.288001 8.232675 7.008643 -21.703384 
